<?xml version="1.0" encoding="iso-8859-1"?>
<!-- Generator: Adobe Illustrator 18.1.1, SVG Export Plug-In . SVG Version: 6.00 Build 0)  -->
<svg version="1.1" id="Capa_1" xmlns="http://www.w3.org/2000/svg" xmlns:xlink="http://www.w3.org/1999/xlink" x="0px" y="0px"
	 viewBox="0 0 271.643 271.643" style="enable-background:new 0 0 271.643 271.643;" xml:space="preserve">
<g>
	<path style="fill:#010002;" d="M235.468,108.384c0,0.147-1.251-4.455-3.486-10.035c-0.484-1.218-0.995-2.415-1.518-3.601
		c-2.437-5.499-1.925-13.609,1.12-18.787c5.88-10.008,12.156-24.938,3.59-33.445l-6.037-6.418
		c-7.348-7.354-22.931-1.082-33.254,4.417c-5.303,2.834-13.565,3.095-19.058,0.664c-1.071-0.473-2.154-0.93-3.247-1.365
		c-5.58-2.23-11.058-8.267-12.684-14.049C157.755,14.609,151.369,0,139.354,0h-6.592c-10.389,0-17.546,15.17-21.381,26.222
		c-1.964,5.678-7.8,11.71-13.337,14.033c-0.963,0.402-1.915,0.816-2.861,1.246c-5.472,2.486-13.532,1.931-18.705-1.126
		c-9.915-5.852-25.243-12.363-33.956-3.639l-6.418,5.417c-7.549,7.544-0.778,23.867,4.835,34.272
		c2.85,5.292,3.16,13.549,0.723,19.042c-0.375,0.843-0.74,1.686-1.093,2.545c-2.29,5.553-8.371,10.971-14.174,12.548
		c-11.161,3.035-26.39,9.404-26.39,21.734v6.587c0,10.557,15.686,17.72,26.766,21.484c5.689,1.942,11.738,7.783,14.076,13.309
		c0.348,0.816,0.702,1.626,1.061,2.426c2.48,5.472,2.235,13.766-0.566,19.086c-5.526,10.465-12.124,26.766-4.596,34.299l6.059,5.042
		c8.795,8.79,23.682,2.725,33.244-2.779c5.205-2.997,8.436-6.685,7.647-7.517c-0.783-0.838,2.692,1.115,8.082,3.775
		c1.985,0.984,4.014,1.904,6.075,2.758c5.553,2.301,11.362,8.338,13.304,14.022c3.78,11.09,11.02,26.858,21.599,26.858h6.592
		c12.455,0,18.879-14.903,21.881-25.585c1.626-5.782,1.762-10.639,1.11-10.661c-0.653-0.016,3.573-1.137,9.214-3.193
		c1.73-0.631,3.443-1.311,5.129-2.034c5.521-2.361,13.783-2.045,19.069,0.81c10.166,5.499,25.134,11.509,32.352,4.275l6.793-6.766
		c8.735-8.735,2.54-23.486-3.057-32.972c-3.051-5.173-6.304-8.811-6.565-8.588c-0.256,0.228,2.067-3.758,4.585-9.214
		c0.62-1.343,1.218-2.709,1.779-4.085c2.274-5.559,8.262-11.438,13.935-13.429c11.063-3.889,26.064-11.025,26.064-21.327v-6.587
		c0-19.417-36.181-24.204-36.181-24.177C235.468,108.118,235.468,108.232,235.468,108.384z M135.384,207.098
		c-39.004,0-70.724-32.651-70.724-71.654c0-39.009,31.721-70.73,70.724-70.73c39.047,0,72.078,31.721,72.078,70.73
		C207.462,174.447,174.431,207.098,135.384,207.098z"/>
</g>
<g>
</g>
<g>
</g>
<g>
</g>
<g>
</g>
<g>
</g>
<g>
</g>
<g>
</g>
<g>
</g>
<g>
</g>
<g>
</g>
<g>
</g>
<g>
</g>
<g>
</g>
<g>
</g>
<g>
</g>
</svg>
