<?xml version="1.0" encoding="utf-8"?>
<svg xmlns="http://www.w3.org/2000/svg">
<symbol id="001-shopping-bag" viewBox="0 0 512 512">
<g>
	<g>
		<path d="M427.636,151.273H84.364c-9.641,0-17.455,7.814-17.455,17.455v290.909c0,28.876,23.494,52.364,52.364,52.364h273.455
			c28.876,0,52.364-23.488,52.364-52.364V168.727C445.091,159.087,437.277,151.273,427.636,151.273z M410.182,459.636
			c0,9.623-7.831,17.455-17.455,17.455H119.273c-9.623,0-17.455-7.831-17.455-17.455V186.182h308.364V459.636z"/>
	</g>
</g>
<g>
	<g>
		<path d="M258.909,0c-57.745,0-104.727,46.982-104.727,104.727v145.455c0,9.641,7.814,17.455,17.455,17.455
			c9.641,0,17.455-7.814,17.455-17.455V104.727c0-38.499,31.319-69.818,69.818-69.818c38.499,0,69.818,31.319,69.818,69.818v145.455
			c0,9.641,7.814,17.455,17.455,17.455s17.455-7.814,17.455-17.455V104.727C363.636,46.982,316.655,0,258.909,0z"/>
	</g>
</g>
<g>
</g>
<g>
</g>
<g>
</g>
<g>
</g>
<g>
</g>
<g>
</g>
<g>
</g>
<g>
</g>
<g>
</g>
<g>
</g>
<g>
</g>
<g>
</g>
<g>
</g>
<g>
</g>
<g>
</g>

</symbol>
<symbol id="002-loupe" viewBox="0 0 512 512">
<g>
	<g>
		<path d="M225.474,0C101.151,0,0,101.151,0,225.474c0,124.33,101.151,225.474,225.474,225.474
			c124.33,0,225.474-101.144,225.474-225.474C450.948,101.151,349.804,0,225.474,0z M225.474,409.323
			c-101.373,0-183.848-82.475-183.848-183.848S124.101,41.626,225.474,41.626s183.848,82.475,183.848,183.848
			S326.847,409.323,225.474,409.323z"/>
	</g>
</g>
<g>
	<g>
		<path d="M505.902,476.472L386.574,357.144c-8.131-8.131-21.299-8.131-29.43,0c-8.131,8.124-8.131,21.306,0,29.43l119.328,119.328
			c4.065,4.065,9.387,6.098,14.715,6.098c5.321,0,10.649-2.033,14.715-6.098C514.033,497.778,514.033,484.596,505.902,476.472z"/>
	</g>
</g>
<g>
</g>
<g>
</g>
<g>
</g>
<g>
</g>
<g>
</g>
<g>
</g>
<g>
</g>
<g>
</g>
<g>
</g>
<g>
</g>
<g>
</g>
<g>
</g>
<g>
</g>
<g>
</g>
<g>
</g>

</symbol>
<symbol id="003-next" viewBox="0 0 443.52 443.52">
<g>
	<g>
		<path d="M336.226,209.591l-204.8-204.8c-6.78-6.548-17.584-6.36-24.132,0.42c-6.388,6.614-6.388,17.099,0,23.712l192.734,192.734
			L107.294,414.391c-6.663,6.664-6.663,17.468,0,24.132c6.665,6.663,17.468,6.663,24.132,0l204.8-204.8
			C342.889,227.058,342.889,216.255,336.226,209.591z"/>
	</g>
</g>
<g>
</g>
<g>
</g>
<g>
</g>
<g>
</g>
<g>
</g>
<g>
</g>
<g>
</g>
<g>
</g>
<g>
</g>
<g>
</g>
<g>
</g>
<g>
</g>
<g>
</g>
<g>
</g>
<g>
</g>

</symbol>
<symbol id="004-edit" viewBox="0 0 490.273 490.273">
<g>
	<g>
		<g>
			<path d="M313.548,152.387l-230.8,230.9c-6.7,6.7-6.7,17.6,0,24.3c3.3,3.3,7.7,5,12.1,5s8.8-1.7,12.1-5l230.8-230.8
				c6.7-6.7,6.7-17.6,0-24.3C331.148,145.687,320.248,145.687,313.548,152.387z"/>
			<path d="M431.148,191.887c4.4,0,8.8-1.7,12.1-5l25.2-25.2c29.1-29.1,29.1-76.4,0-105.4l-34.4-34.4
				c-14.1-14.1-32.8-21.8-52.7-21.8c-19.9,0-38.6,7.8-52.7,21.8l-25.2,25.2c-6.7,6.7-6.7,17.6,0,24.3l115.6,115.6
				C422.348,190.187,426.748,191.887,431.148,191.887z M352.948,45.987c7.6-7.6,17.7-11.8,28.5-11.8c10.7,0,20.9,4.2,28.5,11.8
				l34.4,34.4c15.7,15.7,15.7,41.2,0,56.9l-13.2,13.2l-91.4-91.4L352.948,45.987z"/>
			<path d="M162.848,467.187l243.5-243.5c6.7-6.7,6.7-17.6,0-24.3s-17.6-6.7-24.3,0l-239.3,239.5l-105.6,14.2l14.2-105.6
				l228.6-228.6c6.7-6.7,6.7-17.6,0-24.3c-6.7-6.7-17.6-6.7-24.3,0l-232.6,232.8c-2.7,2.7-4.4,6.1-4.9,9.8l-18,133.6
				c-0.7,5.3,1.1,10.6,4.9,14.4c3.2,3.2,7.6,5,12.1,5c0.8,0,1.5-0.1,2.3-0.2l133.6-18
				C156.748,471.587,160.248,469.887,162.848,467.187z"/>
		</g>
	</g>
	<g>
	</g>
	<g>
	</g>
	<g>
	</g>
	<g>
	</g>
	<g>
	</g>
	<g>
	</g>
	<g>
	</g>
	<g>
	</g>
	<g>
	</g>
	<g>
	</g>
	<g>
	</g>
	<g>
	</g>
	<g>
	</g>
	<g>
	</g>
	<g>
	</g>
</g>
<g>
</g>
<g>
</g>
<g>
</g>
<g>
</g>
<g>
</g>
<g>
</g>
<g>
</g>
<g>
</g>
<g>
</g>
<g>
</g>
<g>
</g>
<g>
</g>
<g>
</g>
<g>
</g>
<g>
</g>

</symbol>
<symbol id="005-layer" viewBox="0 -25 429.208 429"><path d="m429.207031 270.089844-60-30.96875-143.589843 74.269531c-6.921876 3.574219-15.144532 3.574219-22.066407 0l-143.613281-74.285156-59.9375 30.984375 210.902344 109.09375c2.3125 1.183594 5.050781 1.183594 7.363281 0l210.902344-109.09375zm0 0"/><path d="m218.257812 299.175781 210.910157-109.085937-59.9375-30.984375-143.613281 74.285156c-4.519532 2.285156-9.644532 3.074219-14.640626 2.25-2.578124-.335937-5.085937-1.09375-7.417968-2.25l-143.621094-74.285156-59.9375 30.984375 210.910156 109.085937c2.304688 1.191407 5.042969 1.191407 7.347656 0zm0 0"/><path d="m214.585938.105469c-1.28125 0-2.542969.304687-3.683594.886719l-210.902344 109.097656 210.910156 109.09375c.925782.421875 1.921875.664062 2.9375.710937.25 0 .480469.175781.738282.175781 1.277343 0 2.539062-.304687 3.679687-.886718l210.902344-109.09375-210.902344-109.097656c-1.140625-.582032-2.402344-.886719-3.679687-.886719zm0 0"/>
</symbol>
<symbol id="006-cogwheel" viewBox="0 0 271.643 271.643">
<g>
	<path d="M235.468,108.384c0,0.147-1.251-4.455-3.486-10.035c-0.484-1.218-0.995-2.415-1.518-3.601
		c-2.437-5.499-1.925-13.609,1.12-18.787c5.88-10.008,12.156-24.938,3.59-33.445l-6.037-6.418
		c-7.348-7.354-22.931-1.082-33.254,4.417c-5.303,2.834-13.565,3.095-19.058,0.664c-1.071-0.473-2.154-0.93-3.247-1.365
		c-5.58-2.23-11.058-8.267-12.684-14.049C157.755,14.609,151.369,0,139.354,0h-6.592c-10.389,0-17.546,15.17-21.381,26.222
		c-1.964,5.678-7.8,11.71-13.337,14.033c-0.963,0.402-1.915,0.816-2.861,1.246c-5.472,2.486-13.532,1.931-18.705-1.126
		c-9.915-5.852-25.243-12.363-33.956-3.639l-6.418,5.417c-7.549,7.544-0.778,23.867,4.835,34.272
		c2.85,5.292,3.16,13.549,0.723,19.042c-0.375,0.843-0.74,1.686-1.093,2.545c-2.29,5.553-8.371,10.971-14.174,12.548
		c-11.161,3.035-26.39,9.404-26.39,21.734v6.587c0,10.557,15.686,17.72,26.766,21.484c5.689,1.942,11.738,7.783,14.076,13.309
		c0.348,0.816,0.702,1.626,1.061,2.426c2.48,5.472,2.235,13.766-0.566,19.086c-5.526,10.465-12.124,26.766-4.596,34.299l6.059,5.042
		c8.795,8.79,23.682,2.725,33.244-2.779c5.205-2.997,8.436-6.685,7.647-7.517c-0.783-0.838,2.692,1.115,8.082,3.775
		c1.985,0.984,4.014,1.904,6.075,2.758c5.553,2.301,11.362,8.338,13.304,14.022c3.78,11.09,11.02,26.858,21.599,26.858h6.592
		c12.455,0,18.879-14.903,21.881-25.585c1.626-5.782,1.762-10.639,1.11-10.661c-0.653-0.016,3.573-1.137,9.214-3.193
		c1.73-0.631,3.443-1.311,5.129-2.034c5.521-2.361,13.783-2.045,19.069,0.81c10.166,5.499,25.134,11.509,32.352,4.275l6.793-6.766
		c8.735-8.735,2.54-23.486-3.057-32.972c-3.051-5.173-6.304-8.811-6.565-8.588c-0.256,0.228,2.067-3.758,4.585-9.214
		c0.62-1.343,1.218-2.709,1.779-4.085c2.274-5.559,8.262-11.438,13.935-13.429c11.063-3.889,26.064-11.025,26.064-21.327v-6.587
		c0-19.417-36.181-24.204-36.181-24.177C235.468,108.118,235.468,108.232,235.468,108.384z M135.384,207.098
		c-39.004,0-70.724-32.651-70.724-71.654c0-39.009,31.721-70.73,70.724-70.73c39.047,0,72.078,31.721,72.078,70.73
		C207.462,174.447,174.431,207.098,135.384,207.098z"/>
</g>
<g>
</g>
<g>
</g>
<g>
</g>
<g>
</g>
<g>
</g>
<g>
</g>
<g>
</g>
<g>
</g>
<g>
</g>
<g>
</g>
<g>
</g>
<g>
</g>
<g>
</g>
<g>
</g>
<g>
</g>

</symbol>
<symbol id="007-folder" viewBox="0 0 60 60">
<g>
	<path d="M14,23.5c-0.254,0-0.479,0.172-0.545,0.417L2,52.5v1c0,0.734-0.047,1,0.565,1h44.759c1.156,0,2.174-0.779,2.45-1.813
		L60,24.5c0,0,0-0.625,0-1H14z"/>
	<path d="M12.731,21.5H53h1v-6.268c0-1.507-1.226-2.732-2.732-2.732H26.515l-5-7H2.732C1.226,5.5,0,6.726,0,8.232v41.796
		l10.282-26.717C10.557,22.279,11.575,21.5,12.731,21.5z"/>
</g>
<g>
</g>
<g>
</g>
<g>
</g>
<g>
</g>
<g>
</g>
<g>
</g>
<g>
</g>
<g>
</g>
<g>
</g>
<g>
</g>
<g>
</g>
<g>
</g>
<g>
</g>
<g>
</g>
<g>
</g>

</symbol>
<symbol id="008-play-button" viewBox="0 0 512 512">
<g>
	<g>
		<g>
			<path d="M437.02,74.98C388.667,26.629,324.38,0,256,0S123.333,26.629,74.98,74.98C26.629,123.333,0,187.62,0,256
				s26.629,132.667,74.98,181.02C123.333,485.371,187.62,512,256,512c46.813,0,92.617-12.758,132.462-36.893
				c9.447-5.724,12.467-18.022,6.744-27.469c-5.724-9.449-18.023-12.467-27.469-6.744C334.144,461.244,295.505,472,256,472
				c-119.103,0-216-96.897-216-216S136.897,40,256,40s216,96.897,216,216c0,42.589-12.665,84.044-36.626,119.884
				c-6.139,9.182-3.672,21.603,5.51,27.742c9.184,6.141,21.604,3.672,27.742-5.51C497.002,355.674,512,306.53,512,256
				C512,187.62,485.371,123.333,437.02,74.98z"/>
			<path d="M234.665,151.423c-14.087-8.174-30.922-8.202-45.032-0.074c-14.163,8.155-22.618,22.798-22.618,39.169v130.965
				c0,16.371,8.455,31.014,22.618,39.169c7.034,4.052,14.742,6.076,22.452,6.076c7.757,0,15.516-2.052,22.58-6.151l112.847-65.482
				C361.593,286.924,370,272.309,370,256c0-16.309-8.407-30.924-22.488-39.095L234.665,151.423z M327.436,260.497l-112.847,65.482
				c-2.063,1.199-3.855,0.665-4.994,0.01c-1.178-0.678-2.58-2.01-2.58-4.507V190.518c0-2.497,1.402-3.829,2.58-4.507
				c0.646-0.372,1.501-0.703,2.496-0.703c0.761,0,1.604,0.194,2.498,0.713l112.847,65.482c2.12,1.229,2.564,3.124,2.564,4.497
				C330,257.373,329.556,259.268,327.436,260.497z"/>
		</g>
	</g>
</g>
<g>
</g>
<g>
</g>
<g>
</g>
<g>
</g>
<g>
</g>
<g>
</g>
<g>
</g>
<g>
</g>
<g>
</g>
<g>
</g>
<g>
</g>
<g>
</g>
<g>
</g>
<g>
</g>
<g>
</g>

</symbol>
<symbol id="009-users" viewBox="0 0 477.869 477.869">
<g>
	<g>
		<path d="M387.415,233.496c48.976-44.029,52.987-119.424,8.958-168.4C355.991,20.177,288.4,12.546,239.02,47.332
			c-53.83-37.99-128.264-25.149-166.254,28.68c-34.859,49.393-27.259,117.054,17.689,157.483
			c-55.849,29.44-90.706,87.481-90.453,150.613v51.2c0,9.426,7.641,17.067,17.067,17.067h443.733
			c9.426,0,17.067-7.641,17.067-17.067v-51.2C478.121,320.976,443.264,262.935,387.415,233.496z M307.201,59.842
			c47.062-0.052,85.256,38.057,85.309,85.119c0.037,33.564-19.631,64.023-50.237,77.799c-1.314,0.597-2.628,1.143-3.959,1.707
			c-4.212,1.699-8.556,3.051-12.988,4.045c-0.853,0.188-1.707,0.29-2.577,0.461c-4.952,0.949-9.977,1.457-15.019,1.519
			c-2.27,0-4.557-0.171-6.827-0.375c-0.853,0-1.707,0-2.56-0.171c-9.7-1.142-19.136-3.923-27.904-8.226
			c-0.324-0.154-0.7-0.137-1.024-0.273c-1.707-0.819-3.413-1.536-4.932-2.458c0.137-0.171,0.222-0.358,0.358-0.529
			c7.826-10.056,13.996-21.296,18.278-33.297l0.529-1.434c1.947-5.732,3.459-11.602,4.523-17.562c0.154-0.87,0.273-1.707,0.41-2.645
			c0.987-6.067,1.506-12.2,1.553-18.347c-0.049-6.135-0.568-12.257-1.553-18.313c-0.137-0.887-0.256-1.707-0.41-2.645
			c-1.064-5.959-2.576-11.83-4.523-17.562l-0.529-1.434c-4.282-12.001-10.453-23.241-18.278-33.297
			c-0.137-0.171-0.222-0.358-0.358-0.529C277.449,63.831,292.19,59.843,307.201,59.842z M85.335,145.176
			c-0.121-47.006,37.886-85.21,84.892-85.331c22.034-0.057,43.232,8.434,59.134,23.686c0.99,0.956,1.963,1.911,2.918,2.901
			c2.931,3.071,5.634,6.351,8.09,9.813c0.751,1.058,1.434,2.185,2.133,3.277c2.385,3.671,4.479,7.523,6.263,11.52
			c0.427,0.973,0.751,1.963,1.126,2.935c1.799,4.421,3.215,8.989,4.233,13.653c0.12,0.512,0.154,1.024,0.256,1.553
			c2.162,10.597,2.162,21.522,0,32.119c-0.102,0.529-0.137,1.041-0.256,1.553c-1.017,4.664-2.433,9.232-4.233,13.653
			c-0.375,0.973-0.7,1.963-1.126,2.935c-1.786,3.991-3.88,7.837-6.263,11.503c-0.7,1.092-1.382,2.219-2.133,3.277
			c-2.455,3.463-5.159,6.742-8.09,9.813c-0.956,0.99-1.929,1.946-2.918,2.901c-6.91,6.585-14.877,11.962-23.569,15.906
			c-1.382,0.631-2.782,1.212-4.198,1.707c-4.114,1.633-8.347,2.945-12.663,3.925c-1.075,0.239-2.185,0.375-3.277,0.563
			c-4.634,0.863-9.333,1.336-14.046,1.417h-1.877c-4.713-0.08-9.412-0.554-14.046-1.417c-1.092-0.188-2.202-0.324-3.277-0.563
			c-4.316-0.98-8.55-2.292-12.663-3.925c-1.417-0.563-2.816-1.143-4.198-1.707C105.013,209.057,85.374,178.677,85.335,145.176z
			 M307.201,418.242H34.135v-34.133c-0.25-57.833,36.188-109.468,90.76-128.614c29.296,12.197,62.249,12.197,91.546,0
			c5.698,2.082,11.251,4.539,16.623,7.356c3.55,1.826,6.827,3.908,10.24,6.007c2.219,1.382,4.471,2.731,6.605,4.25
			c3.294,2.338,6.4,4.881,9.455,7.492c1.963,1.707,3.908,3.413,5.751,5.12c2.816,2.662,5.461,5.478,8.004,8.363
			c1.826,2.082,3.601,4.198,5.291,6.383c2.236,2.867,4.369,5.803,6.349,8.823c1.707,2.56,3.226,5.222,4.727,7.885
			c1.707,2.935,3.277,5.871,4.71,8.926c1.434,3.055,2.697,6.4,3.925,9.66c1.075,2.833,2.219,5.649,3.106,8.533
			c1.195,3.959,2.031,8.055,2.867,12.151c0.512,2.423,1.178,4.796,1.553,7.253c1.011,6.757,1.53,13.579,1.553,20.412V418.242z
			 M443.735,418.242h-102.4v-34.133c0-5.342-0.307-10.633-0.785-15.872c-0.137-1.536-0.375-3.055-0.546-4.591
			c-0.461-3.772-0.99-7.509-1.707-11.213c-0.307-1.581-0.631-3.169-0.973-4.762c-0.819-3.8-1.769-7.566-2.85-11.298
			c-0.358-1.229-0.683-2.475-1.058-3.686c-4.779-15.277-11.704-29.797-20.565-43.127l-0.666-0.973
			c-2.935-4.358-6.07-8.573-9.404-12.646l-0.119-0.154c-3.413-4.232-7.117-8.346-11.008-12.237c0.222,0,0.461,0,0.7,0
			c4.816,0.633,9.666,0.975,14.524,1.024h0.939c4.496-0.039,8.985-0.33,13.449-0.87c1.399-0.171,2.782-0.427,4.181-0.649
			c3.63-0.557,7.214-1.28,10.752-2.167c1.007-0.256,2.031-0.495,3.055-0.785c4.643-1.263,9.203-2.814,13.653-4.642
			c54.612,19.127,91.083,70.785,90.829,128.649V418.242z"/>
	</g>
</g>
<g>
</g>
<g>
</g>
<g>
</g>
<g>
</g>
<g>
</g>
<g>
</g>
<g>
</g>
<g>
</g>
<g>
</g>
<g>
</g>
<g>
</g>
<g>
</g>
<g>
</g>
<g>
</g>
<g>
</g>

</symbol>
<symbol id="010-coffee" viewBox="0 0 511.999 511.999">
<g>
	<g>
		<path d="M313.922,98.677c19.682-15.899,24.138-32.895,24.409-44.354c0.662-27.877-21.351-48.277-23.864-50.51
			c-6.224-5.536-15.758-4.978-21.295,1.247c-5.536,6.225-4.978,15.758,1.247,21.295c0.141,0.126,14.087,13.174,13.753,27.253
			c-0.178,7.501-4.498,14.567-13.207,21.602c-19.682,15.899-24.138,32.895-24.409,44.354c-0.663,27.877,21.351,48.277,23.863,50.511
			c2.881,2.562,6.477,3.824,10.058,3.824c4.156,0,8.293-1.7,11.267-5.045c5.536-6.225,5.008-15.732-1.217-21.268
			c-3.959-3.6-14.157-15.543-13.81-27.42C300.936,112.707,305.255,105.677,313.922,98.677z"/>
	</g>
</g>
<g>
	<g>
		<path d="M218.217,98.677c19.682-15.899,24.138-32.895,24.409-44.354c0.662-27.877-21.351-48.277-23.864-50.51
			c-6.223-5.536-15.758-4.978-21.295,1.247c-5.536,6.225-4.978,15.758,1.247,21.295c0.141,0.126,14.087,13.174,13.753,27.253
			c-0.178,7.501-4.498,14.567-13.207,21.602c-19.682,15.899-24.138,32.895-24.409,44.354c-0.662,27.877,21.351,48.277,23.863,50.511
			c2.881,2.562,6.477,3.824,10.058,3.824c4.156,0,8.293-1.7,11.267-5.045c5.536-6.225,5.008-15.732-1.217-21.268
			c-3.959-3.6-14.157-15.543-13.81-27.42C205.231,112.707,209.55,105.677,218.217,98.677z"/>
	</g>
</g>
<g>
	<g>
		<path d="M434.157,246.148h-17.852v-11.062c0-8.33-6.753-15.084-15.084-15.084H16.247c-8.33,0-15.084,6.753-15.084,15.084v79.608
			c0,70.343,38.935,132.196,97.389,167.138H16.256c-8.33,0-15.084,6.753-15.084,15.084s6.752,15.084,15.084,15.084h384.966
			c8.33,0,15.084-6.753,15.084-15.084s-6.753-15.084-15.084-15.084h-82.305c33.24-19.87,60.167-48.439,77.211-82.329h38.03
			c42.28,0,76.678-34.398,76.678-76.678C510.836,280.545,476.437,246.148,434.157,246.148z M386.138,314.694
			c-0.001,92.16-79.584,167.138-177.404,167.138c-97.82,0-177.403-74.978-177.403-167.138V250.17h354.806V314.694z M434.157,369.336
			h-25.956c5.271-17.359,8.104-35.692,8.104-54.642v-38.38h17.852c25.646,0,46.511,20.865,46.511,46.511
			S459.803,369.336,434.157,369.336z"/>
	</g>
</g>
<g>
	<g>
		<path d="M122.512,98.678c19.682-15.899,24.138-32.895,24.409-44.354c0.662-27.877-21.351-48.277-23.864-50.51
			c-6.224-5.536-15.758-4.978-21.295,1.247c-5.536,6.224-4.978,15.758,1.247,21.295c0.141,0.126,14.087,13.174,13.753,27.253
			c-0.178,7.501-4.498,14.567-13.207,21.602c-19.682,15.899-24.138,32.895-24.409,44.354c-0.661,27.876,21.352,48.276,23.864,50.51
			c2.874,2.556,6.453,3.813,10.019,3.813c4.157,0,8.296-1.709,11.277-5.06c5.536-6.225,4.978-15.758-1.247-21.295
			c-0.141-0.126-14.087-13.174-13.753-27.253C109.482,112.779,113.802,105.712,122.512,98.678z"/>
	</g>
</g>
<g>
</g>
<g>
</g>
<g>
</g>
<g>
</g>
<g>
</g>
<g>
</g>
<g>
</g>
<g>
</g>
<g>
</g>
<g>
</g>
<g>
</g>
<g>
</g>
<g>
</g>
<g>
</g>
<g>
</g>

</symbol>
<symbol id="011-chat" viewBox="0 0 373.232 373.232">
<g>
	<g>
		<path d="M187.466,0c-0.1,0.1-0.3,0.1-0.6,0.1c-101.2,0-183.5,82.3-183.5,183.5c0,41.3,14.1,81.4,39.9,113.7l-26.7,62
			c-2.2,5.1,0.2,11,5.2,13.1c1.8,0.8,3.8,1,5.7,0.7l97.9-17.2c19.6,7.1,40.2,10.7,61,10.6c101.2,0,183.5-82.3,183.5-183.5
			C370.066,82.1,288.366,0.1,187.466,0z M186.466,346.6c-19.3,0-38.4-3.5-56.5-10.3c-1.7-0.7-3.5-0.8-5.3-0.5l-82.4,14.4l21.8-50.7
			c1.5-3.5,0.9-7.6-1.6-10.5c-11.8-13.7-21.2-29.3-27.8-46.2c-7.4-18.9-11.2-39-11.2-59.3c0-90.2,73.4-163.5,163.5-163.5
			c89.9-0.2,162.9,72.5,163,162.4c0,0.2,0,0.4,0,0.6C349.966,273.3,276.566,346.6,186.466,346.6z"/>
	</g>
</g>
<g>
	<g>
		<path d="M178.666,146.7h-54c-5.5,0-10,4.5-10,10s4.5,10,10,10h54c5.5,0,10-4.5,10-10S184.166,146.7,178.666,146.7z"/>
	</g>
</g>
<g>
	<g>
		<path d="M248.666,196.7h-124c-5.5,0-10,4.5-10,10s4.5,10,10,10h124c5.5,0,10-4.5,10-10S254.166,196.7,248.666,196.7z"/>
	</g>
</g>
<g>
</g>
<g>
</g>
<g>
</g>
<g>
</g>
<g>
</g>
<g>
</g>
<g>
</g>
<g>
</g>
<g>
</g>
<g>
</g>
<g>
</g>
<g>
</g>
<g>
</g>
<g>
</g>
<g>
</g>

</symbol>
<symbol id="012-heart-shape-outline-with-lining-at-right-edge" viewBox="0 0 168.1 168.1">
<g>
	<path d="M142.119,19.245C123.68,9.39,99.36,12.383,84.077,26.134C68.72,12.394,44.361,9.433,25.984,19.245
		C9.968,27.737,0,44,0,61.658c0,5.056,0.84,10.08,2.326,14.408c7.839,33.931,58.163,78.583,81.751,78.583
		c23.537,0,73.823-44.656,81.527-78.008c1.652-4.908,2.495-9.92,2.495-14.988C168.1,44,158.141,27.731,142.119,19.245z
		 M154.157,73.396c-7.294,31.578-54.816,69.347-70.08,69.347c-16.987,0-63.271-39.567-70.303-69.921
		c-1.256-3.661-1.86-7.409-1.86-11.157c0-13.241,7.526-25.478,19.638-31.902c5.64-3.021,12.056-4.58,18.542-4.58
		c11.416,0,22.162,4.843,29.492,13.308l4.543,5.199l4.475-5.199c11.415-13.247,32.384-17.056,47.97-8.728
		c12.112,6.424,19.639,18.661,19.639,31.902C156.188,65.406,155.58,69.155,154.157,73.396z M149.506,61.658
		c0,3.114-0.523,6.244-1.564,9.324c-0.425,1.253-1.56,1.993-2.824,1.993c-0.317,0-0.63-0.022-0.952-0.131
		c-1.564-0.526-2.386-2.222-1.86-3.776c0.837-2.473,1.286-4.98,1.286-7.41c0-8.891-5.049-17.083-13.172-21.362
		c-3.852-2.057-8.021-3.114-12.397-3.114c-1.665,0-2.96-1.308-2.96-2.96c0-1.653,1.295-2.955,2.96-2.955
		c5.341,0,10.45,1.253,15.188,3.776C143.257,40.366,149.506,50.556,149.506,61.658z"/>
</g>
<g>
</g>
<g>
</g>
<g>
</g>
<g>
</g>
<g>
</g>
<g>
</g>
<g>
</g>
<g>
</g>
<g>
</g>
<g>
</g>
<g>
</g>
<g>
</g>
<g>
</g>
<g>
</g>
<g>
</g>

</symbol>
<symbol id="013-bell" viewBox="0 0 512 512">
<g>
	<g>
		<path d="M271,401v-30h200v-15c0-57.429-22.364-111.42-62.972-152.028c-37.052-37.051-85.247-58.904-137.028-62.45V111h30V81h-90
			v30h30v30.522c-51.781,3.545-99.976,25.398-137.028,62.45C63.364,244.58,41,298.571,41,356v15h200v30H0v30h512v-30H271z
			 M71.602,341C79.263,245.979,159.04,171,256,171s176.737,74.979,184.398,170H71.602z"/>
	</g>
</g>
<g>
</g>
<g>
</g>
<g>
</g>
<g>
</g>
<g>
</g>
<g>
</g>
<g>
</g>
<g>
</g>
<g>
</g>
<g>
</g>
<g>
</g>
<g>
</g>
<g>
</g>
<g>
</g>
<g>
</g>

</symbol>
<symbol id="014-link" viewBox="0 0 512.092 512.092">
<g>
	<g>
		<path d="M312.453,199.601c-6.066-6.102-12.792-11.511-20.053-16.128c-19.232-12.315-41.59-18.859-64.427-18.859
			c-31.697-0.059-62.106,12.535-84.48,34.987L34.949,308.23c-22.336,22.379-34.89,52.7-34.91,84.318
			c-0.042,65.98,53.41,119.501,119.39,119.543c31.648,0.11,62.029-12.424,84.395-34.816l89.6-89.6
			c1.628-1.614,2.537-3.816,2.524-6.108c-0.027-4.713-3.87-8.511-8.583-8.484h-3.413c-18.72,0.066-37.273-3.529-54.613-10.581
			c-3.195-1.315-6.867-0.573-9.301,1.877l-64.427,64.512c-20.006,20.006-52.442,20.006-72.448,0
			c-20.006-20.006-20.006-52.442,0-72.448l108.971-108.885c19.99-19.965,52.373-19.965,72.363,0
			c13.472,12.679,34.486,12.679,47.957,0c5.796-5.801,9.31-13.495,9.899-21.675C322.976,216.108,319.371,206.535,312.453,199.601z"/>
	</g>
</g>
<g>
	<g>
		<path d="M477.061,34.993c-46.657-46.657-122.303-46.657-168.96,0l-89.515,89.429c-2.458,2.47-3.167,6.185-1.792,9.387
			c1.359,3.211,4.535,5.272,8.021,5.205h3.157c18.698-0.034,37.221,3.589,54.528,10.667c3.195,1.315,6.867,0.573,9.301-1.877
			l64.256-64.171c20.006-20.006,52.442-20.006,72.448,0c20.006,20.006,20.006,52.442,0,72.448l-80.043,79.957l-0.683,0.768
			l-27.989,27.819c-19.99,19.965-52.373,19.965-72.363,0c-13.472-12.679-34.486-12.679-47.957,0
			c-5.833,5.845-9.35,13.606-9.899,21.845c-0.624,9.775,2.981,19.348,9.899,26.283c9.877,9.919,21.433,18.008,34.133,23.893
			c1.792,0.853,3.584,1.536,5.376,2.304c1.792,0.768,3.669,1.365,5.461,2.048c1.792,0.683,3.669,1.28,5.461,1.792l5.035,1.365
			c3.413,0.853,6.827,1.536,10.325,2.133c4.214,0.626,8.458,1.025,12.715,1.195h5.973h0.512l5.12-0.597
			c1.877-0.085,3.84-0.512,6.059-0.512h2.901l5.888-0.853l2.731-0.512l4.949-1.024h0.939c20.961-5.265,40.101-16.118,55.381-31.403
			l108.629-108.629C523.718,157.296,523.718,81.65,477.061,34.993z"/>
	</g>
</g>
<g>
</g>
<g>
</g>
<g>
</g>
<g>
</g>
<g>
</g>
<g>
</g>
<g>
</g>
<g>
</g>
<g>
</g>
<g>
</g>
<g>
</g>
<g>
</g>
<g>
</g>
<g>
</g>
<g>
</g>

</symbol></svg>